HIERARCHY
ROOT Hips
{
	OFFSET -0.001795 -0.223333 0.028219
	CHANNELS 6 Xposition Yposition Zposition Zrotation Yrotation Xrotation 
	JOINT LeftUpLeg
	{
		OFFSET 0.069520 -0.091406 -0.006815
		CHANNELS 3 Zrotation Yrotation Xrotation
		JOINT LeftLeg
		{
			OFFSET 0.034277 -0.375199 -0.004496
			CHANNELS 3 Zrotation Yrotation Xrotation
			JOINT LeftFoot
			{
				OFFSET -0.013596 -0.397961 -0.043693
				CHANNELS 3 Zrotation Yrotation Xrotation
				JOINT LeftToe
				{
					OFFSET 0.026358 -0.055791 0.119288
					CHANNELS 3 Zrotation Yrotation Xrotation
					End Site
					{
						OFFSET 0.000000 0.000000 0.000000
					}
				}
			}
		}
	}
	JOINT RightUpLeg
	{
		OFFSET -0.067670 -0.090522 -0.004320
		CHANNELS 3 Zrotation Yrotation Xrotation
		JOINT RightLeg
		{
			OFFSET -0.038290 -0.382569 -0.008850
			CHANNELS 3 Zrotation Yrotation Xrotation
			JOINT RightFoot
			{
				OFFSET 0.015774 -0.398415 -0.042312
				CHANNELS 3 Zrotation Yrotation Xrotation
				JOINT RightToe
				{
					OFFSET -0.025372 -0.048144 0.123348
					CHANNELS 3 Zrotation Yrotation Xrotation
					End Site
					{
						OFFSET 0.000000 0.000000 0.000000
					}
				}
			}
		}
	}
	JOINT Spine
	{
		OFFSET -0.002533 0.108963 -0.026696
		CHANNELS 3 Zrotation Yrotation Xrotation
		JOINT Spine1
		{
			OFFSET 0.005487 0.135180 0.001092
			CHANNELS 3 Zrotation Yrotation Xrotation
			JOINT Spine2
			{
				OFFSET 0.001457 0.052922 0.025425
				CHANNELS 3 Zrotation Yrotation Xrotation
				JOINT Neck
				{
					OFFSET -0.002778 0.213870 -0.042857
					CHANNELS 3 Zrotation Yrotation Xrotation
					JOINT Head
					{
						OFFSET 0.005152 0.064970 0.051349
						CHANNELS 3 Zrotation Yrotation Xrotation
						End Site
						{
							OFFSET 0.000000 0.000000 0.000000
						}
					}
				}
				JOINT LeftShoulder
				{
					OFFSET 0.078845 0.121749 -0.034090
					CHANNELS 3 Zrotation Yrotation Xrotation
					JOINT LeftArm
					{
						OFFSET 0.090977 0.030469 -0.008868
						CHANNELS 3 Zrotation Yrotation Xrotation
						JOINT LeftForeArm
						{
							OFFSET 0.259612 -0.012772 -0.027456
							CHANNELS 3 Zrotation Yrotation Xrotation
							JOINT LeftHand
							{
								OFFSET 0.249234 0.008986 -0.001171
								CHANNELS 3 Zrotation Yrotation Xrotation
								End Site
								{
									OFFSET 0.000000 0.000000 0.000000
								}
							}
						}
					}
				}
				JOINT RightShoulder
				{
					OFFSET -0.081759 0.118833 -0.038615
					CHANNELS 3 Zrotation Yrotation Xrotation
					JOINT RightArm
					{
						OFFSET -0.096012 0.032551 -0.009143
						CHANNELS 3 Zrotation Yrotation Xrotation
						JOINT RightForeArm
						{
							OFFSET -0.253742 -0.013329 -0.021401
							CHANNELS 3 Zrotation Yrotation Xrotation
							JOINT RightHand
							{
								OFFSET -0.255298 0.007772 -0.005559
								CHANNELS 3 Zrotation Yrotation Xrotation
								End Site
								{
									OFFSET 0.000000 0.000000 0.000000
								}
							}
						}
					}
				}
			}
		}
	}
}
MOTION
Frames: 16
Frame Time: 0.050000
0.000000 0.967445 0.000000 -0.670255 5.057356 -1.574568 4.134508 0.348929 9.344215 -2.431721 0.332593 -11.422090 -1.116433 5.425035 17.693797 0.000000 0.000000 0.000000 0.585323 -1.027409 8.921966 -1.454343 -0.205246 -6.910960 -2.238006 -9.217971 14.920918 0.000000 0.000000 0.000000 -1.062754 -0.129904 4.087902 2.342192 0.102917 -23.532938 -1.748345 -2.165977 26.696634 0.665660 0.695609 -16.626781 0.000000 0.000000 0.000000 5.346355 6.038600 -1.573391 -0.821166 -13.304230 -0.904234 8.220387 1.004527 0.068280 0.000000 0.000000 0.000000 -12.791135 -3.089273 -0.516693 6.630047 6.702035 -0.948233 -8.820560 2.282181 0.098011 0.000000 0.000000 0.000000 
0.000334 0.965597 0.000027 -1.204388 5.624404 -1.488413 4.645050 0.292235 9.789947 -2.025710 0.328592 -12.764577 -1.992814 4.030072 17.129595 0.000000 0.000000 0.000000 1.454914 -1.204231 9.605628 -2.243478 -0.241804 -8.122927 -2.671351 -9.776940 14.017981 0.000000 0.000000 0.000000 -0.717688 -0.141156 4.030232 1.954343 0.209534 -23.451164 -1.881687 -3.533458 25.967024 -0.770403 1.545059 -16.728813 0.000000 0.000000 0.000000 4.096111 5.019880 -1.419584 -0.399810 -10.246160 -0.681192 5.568249 -0.245498 0.028537 0.000000 0.000000 0.000000 -10.755253 -2.681293 -0.352953 6.677079 5.949170 -0.925195 -7.683268 5.607568 -0.053640 0.000000 0.000000 0.000000 
0.000592 0.964727 -0.000233 -0.849429 4.252705 -1.618158 4.182446 0.375682 9.603722 -1.757829 0.340196 -10.968235 -1.818801 3.613067 15.769976 0.000000 0.000000 0.000000 0.789992 -1.095601 9.423348 -1.597038 -0.251081 -7.818320 -2.167604 -9.091398 14.317165 0.000000 0.000000 0.000000 -0.763646 -0.143510 4.168576 1.835874 0.253069 -24.697662 -2.062114 -1.698358 27.754951 -0.055473 1.281357 -17.879730 0.000000 0.000000 0.000000 3.133404 5.396706 -1.600768 -0.881137 -12.702492 -0.877954 4.681458 0.851458 0.031496 0.000000 0.000000 0.000000 -8.892801 -3.696084 -0.852215 9.694701 7.828028 -1.197617 -9.113480 4.791340 -0.026679 0.000000 0.000000 0.000000 
0.000948 0.964263 -0.000389 -1.000340 4.901630 -1.889539 4.613913 0.328805 9.982497 -1.946081 0.333404 -11.115974 -2.165293 2.778797 14.726988 0.000000 0.000000 0.000000 0.928755 -1.240619 10.411016 -1.302894 -0.305896 -8.534795 -2.339571 -9.544901 15.523093 0.000000 0.000000 0.000000 -1.075689 -0.136390 4.253861 2.642121 0.059176 -24.463318 -2.648206 -2.667832 28.205987 -0.339854 1.389661 -18.201559 0.000000 0.000000 0.000000 1.178873 5.799663 -1.938936 -2.374590 -11.836737 -0.908446 4.853972 -0.712444 0.023008 0.000000 0.000000 0.000000 -8.103076 -3.071998 -0.666325 10.246573 7.897671 -1.236500 -7.558085 4.854412 -0.008254 0.000000 0.000000 0.000000 
0.001070 0.964152 -0.000586 -0.921332 5.002021 -2.120095 4.605346 0.336218 10.170764 -2.264357 0.331735 -10.889236 -2.441747 2.426523 14.887143 0.000000 0.000000 0.000000 0.954186 -1.248031 10.443036 -1.253343 -0.307468 -8.528004 -2.369030 -9.629343 15.777617 0.000000 0.000000 0.000000 -1.505839 -0.134187 4.659593 3.062338 -0.024457 -24.891824 -2.650134 -2.582876 27.822871 -0.167227 1.280128 -17.894359 0.000000 0.000000 0.000000 -0.287869 5.172609 -1.849128 -3.734863 -12.146638 -0.987696 4.843082 -2.717119 0.003410 0.000000 0.000000 0.000000 -6.799764 -2.939773 -0.689467 12.291450 7.965170 -1.368731 -7.191583 6.308864 -0.047590 0.000000 0.000000 0.000000 
0.001285 0.964017 -0.000750 -0.730493 5.784074 -1.958642 4.587027 0.306012 9.932320 -2.199761 0.319735 -10.735705 -2.856047 1.746565 14.552262 0.000000 0.000000 0.000000 0.870387 -1.224945 10.222620 -1.350704 -0.298404 -8.418516 -2.507897 -9.792803 15.948283 0.000000 0.000000 0.000000 -2.053263 -0.097088 4.057285 3.292094 -0.084914 -24.522117 -2.921163 -3.625113 27.906517 0.297930 0.929319 -19.058906 0.000000 0.000000 0.000000 -1.489825 5.588355 -2.109915 -6.281695 -12.957471 -1.143052 5.092548 -3.974020 -0.008447 0.000000 0.000000 0.000000 -6.290202 -2.872992 -0.652063 15.250165 9.289647 -1.484122 -7.313896 6.534702 -0.059706 0.000000 0.000000 0.000000 
0.001351 0.963773 -0.000969 -0.706538 5.543592 -2.008278 4.593921 0.311359 9.882449 -2.347704 0.323397 -10.479005 -2.811186 1.717941 14.389536 0.000000 0.000000 0.000000 0.913875 -1.189394 9.939245 -1.423468 -0.276986 -8.117100 -2.331332 -9.439511 15.536676 0.000000 0.000000 0.000000 -2.170928 -0.091888 4.005050 3.429967 -0.143503 -24.053067 -2.959781 -3.605288 27.452780 0.293154 0.919210 -19.054552 0.000000 0.000000 0.000000 -3.226120 5.277816 -2.151668 -8.273337 -12.877681 -1.234340 5.281688 -4.815344 -0.021216 0.000000 0.000000 0.000000 -4.426718 -2.193376 -0.527772 16.936338 9.105980 -1.589178 -7.247717 7.883986 -0.105487 0.000000 0.000000 0.000000 
0.001379 0.963491 -0.001166 -0.724172 5.450396 -1.831889 4.618065 0.299726 9.611435 -2.335040 0.323416 -10.181364 -2.625275 2.045803 14.505447 0.000000 0.000000 0.000000 0.911276 -1.136772 9.527387 -1.268723 -0.263794 -7.767037 -2.324946 -9.410655 15.396294 0.000000 0.000000 0.000000 -2.166073 -0.089243 3.948824 3.618792 -0.181338 -24.263496 -3.230296 -3.613128 27.860733 0.973901 0.502797 -19.861064 0.000000 0.000000 0.000000 -5.300202 4.948528 -2.207746 -10.627049 -12.697551 -1.373438 5.437343 -5.734431 -0.035147 0.000000 0.000000 0.000000 -2.499257 -1.897739 -0.535236 19.200831 9.641078 -1.705392 -7.049327 9.065488 -0.131088 0.000000 0.000000 0.000000 
0.001324 0.963065 -0.001308 -0.686982 5.159175 -1.722625 4.690933 0.295111 9.495337 -2.622284 0.329693 -10.129115 -2.418670 2.380241 14.635644 0.000000 0.000000 0.000000 0.673604 -1.097407 9.424460 -0.951154 -0.282534 -7.837986 -2.037808 -8.924394 15.327619 0.000000 0.000000 0.000000 -2.207298 -0.080622 3.697868 3.679161 -0.225149 -23.739578 -3.256255 -3.544388 27.719760 0.980336 0.524393 -20.405881 0.000000 0.000000 0.000000 -7.415199 4.460231 -2.190603 -13.026893 -12.603562 -1.508100 6.017389 -5.943428 -0.057559 0.000000 0.000000 0.000000 -0.603282 -1.350497 -0.444668 21.674483 9.928968 -1.814942 -7.000386 10.749550 -0.178232 0.000000 0.000000 0.000000 
0.001227 0.962744 -0.001434 -0.670217 4.967097 -1.581685 4.769253 0.285445 9.346215 -2.845980 0.334177 -10.367294 -2.131531 2.909664 14.918775 0.000000 0.000000 0.000000 0.620753 -1.050377 9.097554 -0.910186 -0.268571 -7.545746 -1.897646 -8.634161 15.007706 0.000000 0.000000 0.000000 -2.251055 -0.072437 3.460330 3.704272 -0.251389 -23.385840 -3.378775 -3.504799 27.569430 1.288082 0.346028 -20.816955 0.000000 0.000000 0.000000 -9.311963 4.103214 -2.203120 -15.771425 -12.486465 -1.662434 6.002333 -6.207897 -0.054296 0.000000 0.000000 0.000000 1.363337 -0.645846 -0.292641 24.233686 10.043187 -1.937174 -6.203906 11.772441 -0.140640 0.000000 0.000000 0.000000 
0.001151 0.962158 -0.001470 -0.724208 4.756434 -1.543288 4.861003 0.278215 9.265456 -2.902580 0.337614 -10.291816 -1.877947 3.248373 14.851662 0.000000 0.000000 0.000000 0.586466 -1.032990 9.001431 -0.744063 -0.275737 -7.531269 -1.906047 -8.652524 14.876120 0.000000 0.000000 0.000000 -2.375812 -0.067482 3.425091 3.828722 -0.290642 -23.314776 -3.286156 -3.447554 27.516600 1.238659 0.402463 -21.284317 0.000000 0.000000 0.000000 -11.322020 3.826080 -2.251111 -18.238410 -12.369232 -1.816746 5.663762 -6.106012 -0.030109 0.000000 0.000000 0.000000 3.121059 0.026050 -0.127850 26.871891 9.839260 -2.117227 -5.333336 12.705646 -0.079268 0.000000 0.000000 0.000000 
0.001142 0.961814 -0.001463 -0.636944 4.342845 -1.543191 4.807994 0.292521 9.181985 -2.865317 0.343457 -10.248850 -1.763708 3.471023 15.123584 0.000000 0.000000 0.000000 0.475516 -1.009065 8.936174 -0.671813 -0.261202 -7.183104 -1.899480 -8.628364 14.517648 0.000000 0.000000 0.000000 -2.425347 -0.064944 3.406246 3.881142 -0.318130 -23.159599 -3.312178 -3.310396 27.406118 1.164494 0.471735 -21.810005 0.000000 0.000000 0.000000 -13.400146 4.067561 -2.548075 -21.063135 -12.244950 -1.997535 5.157428 -6.093802 0.001377 0.000000 0.000000 0.000000 5.225676 0.577509 -0.017889 29.449167 9.747929 -2.277268 -4.550038 13.394942 -0.008592 0.000000 0.000000 0.000000 
0.001193 0.961429 -0.001340 -0.614076 4.113229 -1.469836 4.823747 0.292131 9.065802 -2.973682 0.347830 -10.078159 -1.688241 3.471072 14.892632 0.000000 0.000000 0.000000 0.250380 -0.983279 8.919533 -0.568881 -0.271205 -7.285344 -1.871574 -8.570708 14.328076 0.000000 0.000000 0.000000 -2.454976 -0.060574 3.283278 3.913915 -0.345940 -22.862611 -3.295418 -3.152472 27.232785 1.091488 0.539205 -21.994579 0.000000 0.000000 0.000000 -15.684039 3.827773 -2.662673 -23.258062 -11.889305 -2.168070 4.791595 -6.327039 0.021841 0.000000 0.000000 0.000000 7.355130 1.058963 0.080531 32.122456 9.050725 -2.573919 -4.137120 14.322494 0.039159 0.000000 0.000000 0.000000 
0.001266 0.961165 -0.001177 -0.584276 3.940291 -1.449716 4.756294 0.300576 8.998421 -2.971583 0.349861 -9.936657 -1.584405 3.624344 14.937112 0.000000 0.000000 0.000000 0.039285 -0.964075 8.944009 -0.469173 -0.269244 -7.146536 -1.933260 -8.644169 14.019766 0.000000 0.000000 0.000000 -2.282086 -0.065329 3.289915 3.785361 -0.330100 -22.578762 -3.439322 -2.938507 27.041762 1.226623 0.507497 -22.435055 0.000000 0.000000 0.000000 -17.763355 3.905602 -2.954356 -25.606546 -11.267459 -2.392675 4.391867 -6.902520 0.045571 0.000000 0.000000 0.000000 9.575698 1.302560 0.092111 34.487370 8.579588 -2.828162 -3.763827 14.867046 0.092732 0.000000 0.000000 0.000000 
0.001275 0.960780 -0.000930 -0.511993 3.966943 -1.442617 4.761493 0.301848 9.053218 -3.115246 0.351569 -9.854837 -1.494419 3.620260 14.536586 0.000000 0.000000 0.000000 -0.127912 -0.960760 9.051308 -0.278541 -0.285526 -7.285649 -2.056569 -8.836775 13.856800 0.000000 0.000000 0.000000 -2.371203 -0.061900 3.254655 3.813249 -0.342342 -22.476135 -3.445959 -2.858018 26.981427 1.078652 0.625345 -22.539959 0.000000 0.000000 0.000000 -19.530638 3.890723 -3.170920 -27.796782 -10.373366 -2.687175 4.193211 -7.731249 0.064079 0.000000 0.000000 0.000000 10.955318 1.449334 0.107290 37.301251 7.766057 -3.227067 -3.559819 15.273362 0.133860 0.000000 0.000000 0.000000 
0.001226 0.960442 -0.000732 -0.387936 3.797736 -1.374048 4.850971 0.287786 8.800837 -3.268854 0.356581 -9.647472 -1.465172 3.619431 14.473389 0.000000 0.000000 0.000000 -0.365385 -0.934672 9.042680 -0.137355 -0.290694 -7.253305 -1.992685 -8.664200 13.478013 0.000000 0.000000 0.000000 -2.369344 -0.059861 3.193991 3.687057 -0.327173 -22.181800 -3.519845 -2.730929 26.834848 1.005422 0.720174 -23.157534 0.000000 0.000000 0.000000 -21.219179 4.132588 -3.525883 -30.229664 -9.203798 -3.084517 3.868617 -8.390483 0.095005 0.000000 0.000000 0.000000 12.767841 1.596501 0.088350 39.909144 7.096098 -3.589537 -3.294176 15.662566 0.181651 0.000000 0.000000 0.000000 
